<?xml version="1.0" encoding="UTF-8" standalone="no"?>
<svg
   xmlns:xhtml="http://www.w3.org/1999/xhtml"
   xmlns:dc="http://purl.org/dc/elements/1.1/"
   xmlns:cc="http://creativecommons.org/ns#"
   xmlns:rdf="http://www.w3.org/1999/02/22-rdf-syntax-ns#"
   xmlns:svg="http://www.w3.org/2000/svg"
   xmlns="http://www.w3.org/2000/svg"
   xmlns:sodipodi="http://sodipodi.sourceforge.net/DTD/sodipodi-0.dtd"
   xmlns:inkscape="http://www.inkscape.org/namespaces/inkscape"
   version="1.1"
   width="822"
   height="569.60492"
   id="svg2"
   inkscape:version="0.91 r13725"
   sodipodi:docname="BCCAQv2.svg">
  <metadata
     id="metadata1796">
    <rdf:RDF>
      <cc:Work
         rdf:about="">
        <dc:format>image/svg+xml</dc:format>
        <dc:type
           rdf:resource="http://purl.org/dc/dcmitype/StillImage" />
        <dc:title></dc:title>
      </cc:Work>
    </rdf:RDF>
  </metadata>
  <sodipodi:namedview
     pagecolor="#ffffff"
     bordercolor="#666666"
     borderopacity="1"
     objecttolerance="10"
     gridtolerance="10"
     guidetolerance="10"
     inkscape:pageopacity="0"
     inkscape:pageshadow="2"
     inkscape:window-width="1375"
     inkscape:window-height="876"
     id="namedview1794"
     showgrid="false"
     fit-margin-top="0"
     fit-margin-left="0"
     fit-margin-right="0"
     fit-margin-bottom="0"
     inkscape:zoom="0.69539595"
     inkscape:cx="462.80508"
     inkscape:cy="397.82443"
     inkscape:window-x="65"
     inkscape:window-y="24"
     inkscape:window-maximized="1"
     inkscape:current-layer="g6" />
  <xhtml:style />
  <defs
     id="defs4" />
  <g
     id="g6"
     transform="translate(-39,-769)">
    <g
       transform="translate(50,180)"
       id="g88" />
    <g
       transform="translate(60,197)"
       id="g104">
      <g
         id="g106">
        <g
           id="g108" />
      </g>
      <g
         id="g110">
        <g
           id="g112" />
      </g>
      <g
         id="g114">
        <g
           id="g116" />
      </g>
      <g
         id="g134">
        <g
           id="g136" />
      </g>
    </g>
    <g
       transform="translate(210,263)"
       id="g242">
      <g
         id="g244">
        <g
           id="g246" />
      </g>
      <g
         id="g248">
        <g
           id="g250" />
      </g>
    </g>
    <g
       transform="translate(95.5,250.5)"
       id="g344" />
    <g
       transform="translate(290,42.5)"
       id="g354" />
    <g
       transform="translate(900,152)"
       id="g688" />
    <g
       transform="translate(715.5,119)"
       id="g720" />
    <g
       transform="translate(900,298)"
       id="g740">
      <g
         id="g742" />
    </g>
    <g
       transform="translate(925.5,393.5)"
       id="g940" />
    <g
       transform="translate(715.5,359)"
       id="g950">
      <g
         id="g952" />
    </g>
    <g
       transform="translate(715.5,553)"
       id="g960" />
    <g
       transform="translate(40,892)"
       id="g1044">
      <g
         id="g1046">
        <g
           id="g1048">
          <g
             transform="scale(0.81,0.72)"
             id="g1050">
            <g
               id="g1052">
              <g
                 transform="scale(1.2345679,1.3888889)"
                 id="g1054">
                <path
                   d="m 0,0 81,0 0,72 Q 60.75,54 40.5,72 20.25,90 0,72 L 0,0 Z"
                   id="path1056"
                   inkscape:connector-curvature="0"
                   style="fill:#ffffff;stroke:none" />
                <path
                   d="m 0,0 m 0,0 81,0 0,72 Q 60.75,54 40.5,72 20.25,90 0,72 L 0,0 Z"
                   stroke-miterlimit="10"
                   id="path1058"
                   inkscape:connector-curvature="0"
                   style="fill:none;stroke:#333333;stroke-width:2;stroke-miterlimit:10" />
              </g>
            </g>
            <g
               transform="translate(11.5,13.25)"
               id="g1060">
              <g
                 id="g1062">
                <g
                   transform="scale(1.2345679,1.3888889)"
                   id="g1064">
                  <path
                     d="m 0,0 81,0 0,72 Q 60.75,54 40.5,72 20.25,90 0,72 L 0,0 Z"
                     id="path1066"
                     inkscape:connector-curvature="0"
                     style="fill:#ffffff;stroke:none" />
                  <path
                     d="m 0,0 m 0,0 81,0 0,72 Q 60.75,54 40.5,72 20.25,90 0,72 L 0,0 Z"
                     stroke-miterlimit="10"
                     id="path1068"
                     inkscape:connector-curvature="0"
                     style="fill:none;stroke:#333333;stroke-width:2;stroke-miterlimit:10" />
                </g>
              </g>
            </g>
            <g
               transform="translate(23,26.5)"
               id="g1070">
              <g
                 id="g1072">
                <g
                   transform="scale(1.2345679,1.3888889)"
                   id="g1074">
                  <path
                     d="m 0,0 81,0 0,72 Q 60.75,54 40.5,72 20.25,90 0,72 L 0,0 Z"
                     id="path1076"
                     inkscape:connector-curvature="0"
                     style="fill:#ffffff;stroke:none" />
                  <path
                     d="m 0,0 m 0,0 81,0 0,72 Q 60.75,54 40.5,72 20.25,90 0,72 L 0,0 Z"
                     stroke-miterlimit="10"
                     id="path1078"
                     inkscape:connector-curvature="0"
                     style="fill:none;stroke:#333333;stroke-width:2;stroke-miterlimit:10" />
                </g>
              </g>
            </g>
          </g>
        </g>
      </g>
    </g>
    <g
       transform="translate(50,928)"
       id="g1080">
      <g
         id="g1082">
        <g
           id="g1084" />
      </g>
      <g
         id="g1086">
        <g
           id="g1088" />
      </g>
      <g
         id="g1090">
        <g
           id="g1092" />
        <text
           font-size="12px"
           font-style="normal"
           font-weight="normal"
           text-decoration=""
           line-height="14px"
           x="14"
           y="11"
           id="text1094"
           style="font-style:normal;font-weight:normal;font-size:12px;line-height:14px;font-family:Arial;fill:#000000;stroke:none">GCM</text>
        <text
           font-size="12px"
           font-style="normal"
           font-weight="normal"
           text-decoration=""
           line-height="14px"
           x="45"
           y="11"
           id="text1096"
           style="font-style:normal;font-weight:normal;font-size:12px;line-height:14px;font-family:Arial;fill:#000000;stroke:none">files</text>
      </g>
      <g
         id="g1098">
        <g
           id="g1100" />
      </g>
      <g
         id="g1102">
        <g
           id="g1104" />
      </g>
      <g
         id="g1106">
        <g
           id="g1108" />
        <text
           font-size="12px"
           font-style="normal"
           font-weight="normal"
           text-decoration=""
           line-height="14px"
           x="3"
           y="25"
           id="text1110"
           style="font-style:normal;font-weight:normal;font-size:12px;line-height:14px;font-family:Arial;fill:#000000;stroke:none">1</text>
        <text
           font-size="12px"
           font-style="normal"
           font-weight="normal"
           text-decoration=""
           line-height="14px"
           x="10"
           y="25"
           id="text1112"
           style="font-style:normal;font-weight:normal;font-size:12px;line-height:14px;font-family:Arial;fill:#000000;stroke:none">-</text>
        <text
           font-size="12px"
           font-style="normal"
           font-weight="normal"
           text-decoration=""
           line-height="14px"
           x="14"
           y="25"
           id="text1114"
           style="font-style:normal;font-weight:normal;font-size:12px;line-height:14px;font-family:Arial;fill:#000000;stroke:none">16</text>
        <text
           font-size="12px"
           font-style="normal"
           font-weight="normal"
           text-decoration=""
           line-height="14px"
           x="31"
           y="25"
           id="text1116"
           style="font-style:normal;font-weight:normal;font-size:12px;line-height:14px;font-family:Arial;fill:#000000;stroke:none">GB</text>
        <text
           font-size="12px"
           font-style="normal"
           font-weight="normal"
           text-decoration=""
           line-height="14px"
           x="51"
           y="25"
           id="text1118"
           style="font-style:normal;font-weight:normal;font-size:12px;line-height:14px;font-family:Arial;fill:#000000;stroke:none">each</text>
      </g>
    </g>
    <g
       transform="translate(135.5,865.5)"
       id="g1120">
      <g
         id="g1122">
        <g
           transform="translate(-135.5,-865.5)"
           id="g1124">
          <g
             id="g1126">
            <path
               d="m 140,942 50,0 q 10,0 10,-10 l 0,-52 q 0,-10 10,-10 l 50,0"
               stroke-miterlimit="10"
               id="path1128"
               inkscape:connector-curvature="0"
               style="fill:none;stroke:#000000;stroke-width:2;stroke-miterlimit:10" />
          </g>
        </g>
      </g>
    </g>
    <g
       transform="translate(135.5,815.5)"
       id="g1130">
      <g
         id="g1132">
        <g
           transform="translate(-135.5,-815.5)"
           id="g1134">
          <g
             id="g1136">
            <path
               d="m 140,820 50,0 q 10,0 10,10 l 0,30 q 0,10 10,10 l 50,0"
               stroke-miterlimit="10"
               id="path1138"
               inkscape:connector-curvature="0"
               style="fill:none;stroke:#000000;stroke-width:2;stroke-miterlimit:10" />
          </g>
        </g>
      </g>
    </g>
    <g
       transform="translate(260,832.5)"
       id="g1140">
      <g
         id="g1142">
        <g
           transform="scale(1,0.75)"
           id="g1144">
          <g
             id="g1146">
            <path
               d="m 0,0 100,0 q 0,0 0,0 l 0,100 q 0,0 0,0 L 0,100 q 0,0 0,0 L 0,0 q 0,0 0,0 z"
               id="path1148"
               inkscape:connector-curvature="0"
               style="fill:#ffffff;stroke:none" />
            <g
               transform="scale(1,1.3333333)"
               id="g1150">
              <path
                 d="m 0,0 100,0 q 0,0 0,0 l 0,75 q 0,0 0,0 L 0,75 q 0,0 0,0 L 0,0 q 0,0 0,0 z"
                 id="path1152"
                 inkscape:connector-curvature="0"
                 style="fill:none;stroke:none" />
              <path
                 d="m 0,0 m 0,0 100,0 q 0,0 0,0 l 0,75 q 0,0 0,0 L 0,75 q 0,0 0,0 L 0,0 q 0,0 0,0 z"
                 stroke-miterlimit="10"
                 id="path1154"
                 inkscape:connector-curvature="0"
                 style="fill:none;stroke:#333333;stroke-width:2;stroke-miterlimit:10" />
            </g>
          </g>
        </g>
      </g>
    </g>
    <g
       transform="translate(270,863)"
       id="g1156">
      <g
         id="g1158">
        <g
           id="g1160" />
      </g>
      <g
         id="g1162">
        <g
           id="g1164" />
      </g>
      <g
         id="g1166">
        <g
           id="g1168" />
      </g>
      <g
         id="g1170">
        <g
           id="g1172" />
        <text
           font-size="12px"
           font-style="normal"
           font-weight="normal"
           text-decoration=""
           line-height="14px"
           x="26"
           y="11"
           id="text1174"
           style="font-style:normal;font-weight:normal;font-size:12px;line-height:14px;font-family:Arial;fill:#000000;stroke:none">BCCI</text>
      </g>
      <g
         id="g1176">
        <g
           id="g1178" />
      </g>
    </g>
    <g
       transform="translate(260,942)"
       id="g1180">
      <g
         id="g1182">
        <g
           transform="scale(1,0.75)"
           id="g1184">
          <g
             id="g1186">
            <path
               d="m 0,0 100,0 q 0,0 0,0 l 0,100 q 0,0 0,0 L 0,100 q 0,0 0,0 L 0,0 q 0,0 0,0 z"
               id="path1188"
               inkscape:connector-curvature="0"
               style="fill:#ffffff;stroke:none" />
            <g
               transform="scale(1,1.3333333)"
               id="g1190">
              <path
                 d="m 0,0 100,0 q 0,0 0,0 l 0,75 q 0,0 0,0 L 0,75 q 0,0 0,0 L 0,0 q 0,0 0,0 z"
                 id="path1192"
                 inkscape:connector-curvature="0"
                 style="fill:none;stroke:none" />
              <path
                 d="m 0,0 m 0,0 100,0 q 0,0 0,0 l 0,75 q 0,0 0,0 L 0,75 q 0,0 0,0 L 0,0 q 0,0 0,0 z"
                 stroke-miterlimit="10"
                 id="path1194"
                 inkscape:connector-curvature="0"
                 style="fill:none;stroke:#333333;stroke-width:2;stroke-miterlimit:10" />
            </g>
          </g>
        </g>
      </g>
    </g>
    <g
       transform="translate(270,973)"
       id="g1196">
      <g
         id="g1198">
        <g
           id="g1200" />
      </g>
      <g
         id="g1202">
        <g
           id="g1204" />
      </g>
      <g
         id="g1206">
        <g
           id="g1208" />
      </g>
      <g
         id="g1210">
        <g
           id="g1212" />
        <text
           font-size="12px"
           font-style="normal"
           font-weight="normal"
           text-decoration=""
           line-height="14px"
           x="23"
           y="11"
           id="text1214"
           style="font-style:normal;font-weight:normal;font-size:12px;line-height:14px;font-family:Arial;fill:#000000;stroke:none">BCCA</text>
      </g>
      <g
         id="g1216">
        <g
           id="g1218" />
      </g>
    </g>
    <g
       transform="translate(135.5,937.5)"
       id="g1220">
      <g
         id="g1222">
        <g
           transform="translate(-135.5,-937.5)"
           id="g1224">
          <g
             id="g1226">
            <path
               d="m 140,942 50,0 q 10,0 10,10 l 0,17.5 q 0,10 10,10 l 50,0"
               stroke-miterlimit="10"
               id="path1228"
               inkscape:connector-curvature="0"
               style="fill:none;stroke:#000000;stroke-width:2;stroke-miterlimit:10" />
          </g>
        </g>
      </g>
    </g>
    <g
       transform="translate(135.5,815.5)"
       id="g1230">
      <g
         id="g1232">
        <g
           transform="translate(-135.5,-815.5)"
           id="g1234">
          <g
             id="g1236">
            <path
               d="m 140,820 50,0 q 10,0 10,10 l 0,139.5 q 0,10 10,10 l 50,0"
               stroke-miterlimit="10"
               id="path1238"
               inkscape:connector-curvature="0"
               style="fill:none;stroke:#000000;stroke-width:2;stroke-miterlimit:10" />
          </g>
        </g>
      </g>
    </g>
    <g
       transform="translate(450,832.5)"
       id="g1240">
      <g
         id="g1242">
        <g
           transform="scale(2.4,1.87)"
           id="g1244">
          <g
             transform="scale(0.81,0.72)"
             id="g1246">
            <g
               id="g1248">
              <g
                 transform="scale(0.51440329,0.74272133)"
                 id="g1250">
                <path
                   d="m 0,0 194.4,0 0,134.64 q -48.6,-33.66 -97.2,0 -48.6,33.66 -97.2,0 L 0,0 Z"
                   id="path1252"
                   inkscape:connector-curvature="0"
                   style="fill:#ffffff;stroke:none" />
                <path
                   d="m 0,0 m 0,0 194.4,0 0,134.64 q -48.6,-33.66 -97.2,0 -48.6,33.66 -97.2,0 L 0,0 Z"
                   stroke-miterlimit="10"
                   id="path1254"
                   inkscape:connector-curvature="0"
                   style="fill:none;stroke:#333333;stroke-width:2;stroke-miterlimit:10" />
              </g>
            </g>
            <g
               transform="translate(11.5,13.25)"
               id="g1256">
              <g
                 id="g1258">
                <g
                   transform="scale(0.51440329,0.74272133)"
                   id="g1260">
                  <path
                     d="m 0,0 194.4,0 0,134.64 q -48.6,-33.66 -97.2,0 -48.6,33.66 -97.2,0 L 0,0 Z"
                     id="path1262"
                     inkscape:connector-curvature="0"
                     style="fill:#ffffff;stroke:none" />
                  <path
                     d="m 0,0 m 0,0 194.4,0 0,134.64 q -48.6,-33.66 -97.2,0 -48.6,33.66 -97.2,0 L 0,0 Z"
                     stroke-miterlimit="10"
                     id="path1264"
                     inkscape:connector-curvature="0"
                     style="fill:none;stroke:#333333;stroke-width:2;stroke-miterlimit:10" />
                </g>
              </g>
            </g>
            <g
               transform="translate(23,26.5)"
               id="g1266">
              <g
                 id="g1268">
                <g
                   transform="scale(0.51440329,0.74272133)"
                   id="g1270">
                  <path
                     d="m 0,0 194.4,0 0,134.64 q -48.6,-33.66 -97.2,0 -48.6,33.66 -97.2,0 L 0,0 Z"
                     id="path1272"
                     inkscape:connector-curvature="0"
                     style="fill:#ffffff;stroke:none" />
                  <path
                     d="m 0,0 m 0,0 194.4,0 0,134.64 q -48.6,-33.66 -97.2,0 -48.6,33.66 -97.2,0 L 0,0 Z"
                     stroke-miterlimit="10"
                     id="path1274"
                     inkscape:connector-curvature="0"
                     style="fill:none;stroke:#333333;stroke-width:2;stroke-miterlimit:10" />
                </g>
              </g>
            </g>
          </g>
        </g>
      </g>
    </g>
    <g
       transform="translate(463,919)"
       id="g1276">
      <g
         id="g1278">
        <g
           id="g1280" />
      </g>
      <g
         id="g1282">
        <g
           id="g1284" />
      </g>
      <g
         id="g1286">
        <g
           id="g1288" />
      </g>
      <g
         id="g1290">
        <g
           id="g1292" />
        <text
           font-size="12px"
           font-style="normal"
           font-weight="normal"
           text-decoration=""
           line-height="14px"
           x="87"
           y="11"
           id="text1294"
           style="font-style:normal;font-weight:normal;font-size:12px;line-height:14px;font-family:Arial;fill:#000000;stroke:none">170</text>
        <text
           font-size="12px"
           font-style="normal"
           font-weight="normal"
           text-decoration=""
           line-height="14px"
           x="111"
           y="11"
           id="text1296"
           style="font-style:normal;font-weight:normal;font-size:12px;line-height:14px;font-family:Arial;fill:#000000;stroke:none">GB</text>
      </g>
      <g
         id="g1298">
        <g
           id="g1300" />
      </g>
    </g>
    <g
       transform="translate(450,1082.5)"
       id="g1302">
      <g
         id="g1304">
        <g
           transform="scale(0.8,0.5)"
           id="g1306">
          <g
             transform="scale(0.81,0.72)"
             id="g1308">
            <g
               id="g1310">
              <g
                 transform="scale(1.5432099,2.7777778)"
                 id="g1312">
                <path
                   d="m 0,0 64.8,0 0,36 Q 48.6,27 32.4,36 16.2,45 0,36 L 0,0 Z"
                   id="path1314"
                   inkscape:connector-curvature="0"
                   style="fill:#ffffff;stroke:none" />
                <path
                   d="m 0,0 m 0,0 64.8,0 0,36 Q 48.6,27 32.4,36 16.2,45 0,36 L 0,0 Z"
                   stroke-miterlimit="10"
                   id="path1316"
                   inkscape:connector-curvature="0"
                   style="fill:none;stroke:#333333;stroke-width:2;stroke-miterlimit:10" />
              </g>
            </g>
            <g
               transform="translate(11.5,13.25)"
               id="g1318">
              <g
                 id="g1320">
                <g
                   transform="scale(1.5432099,2.7777778)"
                   id="g1322">
                  <path
                     d="m 0,0 64.8,0 0,36 Q 48.6,27 32.4,36 16.2,45 0,36 L 0,0 Z"
                     id="path1324"
                     inkscape:connector-curvature="0"
                     style="fill:#ffffff;stroke:none" />
                  <path
                     d="m 0,0 m 0,0 64.8,0 0,36 Q 48.6,27 32.4,36 16.2,45 0,36 L 0,0 Z"
                     stroke-miterlimit="10"
                     id="path1326"
                     inkscape:connector-curvature="0"
                     style="fill:none;stroke:#333333;stroke-width:2;stroke-miterlimit:10" />
                </g>
              </g>
            </g>
            <g
               transform="translate(23,26.5)"
               id="g1328">
              <g
                 id="g1330">
                <g
                   transform="scale(1.5432099,2.7777778)"
                   id="g1332">
                  <path
                     d="m 0,0 64.8,0 0,36 Q 48.6,27 32.4,36 16.2,45 0,36 L 0,0 Z"
                     id="path1334"
                     inkscape:connector-curvature="0"
                     style="fill:#ffffff;stroke:none" />
                  <path
                     d="m 0,0 m 0,0 64.8,0 0,36 Q 48.6,27 32.4,36 16.2,45 0,36 L 0,0 Z"
                     stroke-miterlimit="10"
                     id="path1336"
                     inkscape:connector-curvature="0"
                     style="fill:none;stroke:#333333;stroke-width:2;stroke-miterlimit:10" />
                </g>
              </g>
            </g>
          </g>
        </g>
      </g>
    </g>
    <g
       transform="translate(460,1094)"
       id="g1338">
      <g
         id="g1340">
        <g
           id="g1342" />
      </g>
      <g
         id="g1344">
        <g
           id="g1346" />
      </g>
      <g
         id="g1348">
        <g
           id="g1350" />
      </g>
      <g
         id="g1352">
        <g
           id="g1354" />
        <text
           font-size="12px"
           font-style="normal"
           font-weight="normal"
           text-decoration=""
           line-height="14px"
           x="1"
           y="11"
           id="text1356"
           style="font-style:normal;font-weight:normal;font-size:12px;line-height:14px;font-family:Arial;fill:#000000;stroke:none">Analogues</text>
        <text
           font-size="12px"
           font-style="normal"
           font-weight="normal"
           text-decoration=""
           line-height="14px"
           x="60"
           y="11"
           id="text1358"
           style="font-style:normal;font-weight:normal;font-size:12px;line-height:14px;font-family:Arial;fill:#000000;stroke:none">(</text>
        <text
           font-size="12px"
           font-style="normal"
           font-weight="normal"
           text-decoration=""
           line-height="14px"
           x="13"
           y="25"
           id="text1360"
           style="font-style:normal;font-weight:normal;font-size:12px;line-height:14px;font-family:Arial;fill:#000000;stroke:none">14</text>
        <text
           font-size="12px"
           font-style="normal"
           font-weight="normal"
           text-decoration=""
           line-height="14px"
           x="30"
           y="25"
           id="text1362"
           style="font-style:normal;font-weight:normal;font-size:12px;line-height:14px;font-family:Arial;fill:#000000;stroke:none">MB</text>
        <text
           font-size="12px"
           font-style="normal"
           font-weight="normal"
           text-decoration=""
           line-height="14px"
           x="48"
           y="25"
           id="text1364"
           style="font-style:normal;font-weight:normal;font-size:12px;line-height:14px;font-family:Arial;fill:#000000;stroke:none">)</text>
      </g>
      <g
         id="g1366">
        <g
           id="g1368" />
      </g>
    </g>
    <g
       transform="translate(355.5,865.5)"
       id="g1370">
      <g
         id="g1372">
        <g
           transform="translate(-355.5,-865.5)"
           id="g1374">
          <g
             id="g1376">
            <path
               d="m 360,870 35,0 q 10,0 10,8.63552 l 0,0 q 0,8.63551 10,8.63551 l 35,0"
               stroke-miterlimit="10"
               id="path1378"
               inkscape:connector-curvature="0"
               style="fill:none;stroke:#000000;stroke-width:2;stroke-miterlimit:10" />
          </g>
        </g>
      </g>
    </g>
    <g
       transform="translate(355.5,975)"
       id="g1380">
      <g
         id="g1382">
        <g
           transform="translate(-355.5,-975)"
           id="g1384">
          <g
             id="g1386">
            <path
               d="m 360,979.5 35,0 q 10,0 10,10 l 0,97.6447 q 0,10 10,10 l 35,0"
               stroke-miterlimit="10"
               id="path1388"
               inkscape:connector-curvature="0"
               style="fill:none;stroke:#000000;stroke-width:2;stroke-miterlimit:10" />
          </g>
        </g>
      </g>
    </g>
    <g
       transform="translate(760,888.5)"
       id="g1390">
      <g
         id="g1392">
        <g
           transform="scale(1,0.75)"
           id="g1394">
          <g
             id="g1396">
            <path
               d="m 0,0 100,0 q 0,0 0,0 l 0,100 q 0,0 0,0 L 0,100 q 0,0 0,0 L 0,0 q 0,0 0,0 z"
               id="path1398"
               inkscape:connector-curvature="0"
               style="fill:#ffffff;stroke:none" />
            <g
               transform="scale(1,1.3333333)"
               id="g1400">
              <path
                 d="m 0,0 100,0 q 0,0 0,0 l 0,75 q 0,0 0,0 L 0,75 q 0,0 0,0 L 0,0 q 0,0 0,0 z"
                 id="path1402"
                 inkscape:connector-curvature="0"
                 style="fill:none;stroke:none" />
              <path
                 d="m 0,0 m 0,0 100,0 q 0,0 0,0 l 0,75 q 0,0 0,0 L 0,75 q 0,0 0,0 L 0,0 q 0,0 0,0 z"
                 stroke-miterlimit="10"
                 id="path1404"
                 inkscape:connector-curvature="0"
                 style="fill:none;stroke:#333333;stroke-width:2;stroke-miterlimit:10" />
            </g>
          </g>
        </g>
      </g>
    </g>
    <g
       transform="translate(770,919)"
       id="g1406">
      <g
         id="g1408">
        <g
           id="g1410" />
      </g>
      <g
         id="g1412">
        <g
           id="g1414" />
      </g>
      <g
         id="g1416">
        <g
           id="g1418" />
        <text
           font-size="12px"
           font-style="normal"
           font-weight="normal"
           text-decoration=""
           line-height="14px"
           x="23"
           y="11"
           id="text1420"
           style="font-style:normal;font-weight:normal;font-size:12px;line-height:14px;font-family:Arial;fill:#000000;stroke:none">QPQM</text>
      </g>
    </g>
    <g
       transform="translate(685.5,921.5)"
       id="g1422">
      <g
         id="g1424">
        <g
           transform="translate(-685.5,-921.5)"
           id="g1426">
          <g
             id="g1428">
            <path
               d="m 690,926 13.33333,0 q 10,0 20,0 l 3.33334,0 q 10,0 20,0 L 760,926"
               stroke-miterlimit="10"
               id="path1430"
               inkscape:connector-curvature="0"
               style="fill:none;stroke:#000000;stroke-width:2;stroke-miterlimit:10" />
          </g>
        </g>
      </g>
    </g>
    <g
       transform="translate(135.5,815.5)"
       id="g1432">
      <g
         id="g1434">
        <g
           transform="translate(-135.5,-815.5)"
           id="g1436">
          <g
             id="g1438">
            <path
               d="m 140,820 660,0 q 10,0 10,10 l 0,58.5"
               stroke-miterlimit="10"
               id="path1440"
               inkscape:connector-curvature="0"
               style="fill:none;stroke:#000000;stroke-width:2;stroke-miterlimit:10" />
          </g>
        </g>
      </g>
    </g>
    <g
       transform="translate(760,1191.5)"
       id="g1442">
      <g
         id="g1444">
        <g
           transform="scale(1,0.93)"
           id="g1446">
          <g
             transform="scale(0.81,0.72)"
             id="g1448">
            <g
               id="g1450">
              <g
                 transform="scale(1.2345679,1.4934289)"
                 id="g1452">
                <path
                   d="m 0,0 81,0 0,66.96 Q 60.75,50.22 40.5,66.96 20.25,83.7 0,66.96 L 0,0 Z"
                   id="path1454"
                   inkscape:connector-curvature="0"
                   style="fill:#ffffff;stroke:none" />
                <path
                   d="m 0,0 m 0,0 81,0 0,66.96 Q 60.75,50.22 40.5,66.96 20.25,83.7 0,66.96 L 0,0 Z"
                   stroke-miterlimit="10"
                   id="path1456"
                   inkscape:connector-curvature="0"
                   style="fill:none;stroke:#333333;stroke-width:2;stroke-miterlimit:10" />
              </g>
            </g>
            <g
               transform="translate(11.5,13.25)"
               id="g1458">
              <g
                 id="g1460">
                <g
                   transform="scale(1.2345679,1.4934289)"
                   id="g1462">
                  <path
                     d="m 0,0 81,0 0,66.96 Q 60.75,50.22 40.5,66.96 20.25,83.7 0,66.96 L 0,0 Z"
                     id="path1464"
                     inkscape:connector-curvature="0"
                     style="fill:#ffffff;stroke:none" />
                  <path
                     d="m 0,0 m 0,0 81,0 0,66.96 Q 60.75,50.22 40.5,66.96 20.25,83.7 0,66.96 L 0,0 Z"
                     stroke-miterlimit="10"
                     id="path1466"
                     inkscape:connector-curvature="0"
                     style="fill:none;stroke:#333333;stroke-width:2;stroke-miterlimit:10" />
                </g>
              </g>
            </g>
            <g
               transform="translate(23,26.5)"
               id="g1468">
              <g
                 id="g1470">
                <g
                   transform="scale(1.2345679,1.4934289)"
                   id="g1472">
                  <path
                     d="m 0,0 81,0 0,66.96 Q 60.75,50.22 40.5,66.96 20.25,83.7 0,66.96 L 0,0 Z"
                     id="path1474"
                     inkscape:connector-curvature="0"
                     style="fill:#ffffff;stroke:none" />
                  <path
                     d="m 0,0 m 0,0 81,0 0,66.96 Q 60.75,50.22 40.5,66.96 20.25,83.7 0,66.96 L 0,0 Z"
                     stroke-miterlimit="10"
                     id="path1476"
                     inkscape:connector-curvature="0"
                     style="fill:none;stroke:#333333;stroke-width:2;stroke-miterlimit:10" />
                </g>
              </g>
            </g>
          </g>
        </g>
      </g>
    </g>
    <g
       transform="translate(770,1217)"
       id="g1478">
      <g
         id="g1480">
        <g
           id="g1482" />
      </g>
      <g
         id="g1484">
        <g
           id="g1486" />
      </g>
      <g
         id="g1488">
        <g
           id="g1490" />
        <text
           font-size="12px"
           font-style="normal"
           font-weight="normal"
           text-decoration=""
           line-height="14px"
           x="2"
           y="11"
           id="text1492"
           style="font-style:normal;font-weight:normal;font-size:12px;line-height:14px;font-family:Arial;fill:#000000;stroke:none">Bias</text>
        <text
           font-size="12px"
           font-style="normal"
           font-weight="normal"
           text-decoration=""
           line-height="14px"
           x="29"
           y="11"
           id="text1494"
           style="font-style:normal;font-weight:normal;font-size:12px;line-height:14px;font-family:Arial;fill:#000000;stroke:none">corrected</text>
        <text
           font-size="12px"
           font-style="normal"
           font-weight="normal"
           text-decoration=""
           line-height="14px"
           x="24"
           y="25"
           id="text1496"
           style="font-style:normal;font-weight:normal;font-size:12px;line-height:14px;font-family:Arial;fill:#000000;stroke:none">output</text>
      </g>
      <g
         id="g1498">
        <g
           id="g1500" />
      </g>
      <g
         id="g1502">
        <g
           id="g1504" />
        <text
           font-size="12px"
           font-style="normal"
           font-weight="normal"
           text-decoration=""
           line-height="14px"
           x="21"
           y="39"
           id="text1506"
           style="font-style:normal;font-weight:normal;font-size:12px;line-height:14px;font-family:Arial;fill:#000000;stroke:none">110</text>
        <text
           font-size="12px"
           font-style="normal"
           font-weight="normal"
           text-decoration=""
           line-height="14px"
           x="44"
           y="39"
           id="text1508"
           style="font-style:normal;font-weight:normal;font-size:12px;line-height:14px;font-family:Arial;fill:#000000;stroke:none">GB</text>
      </g>
    </g>
    <g
       transform="translate(805.5,959)"
       id="g1510">
      <g
         id="g1512">
        <g
           transform="translate(-805.5,-959)"
           id="g1514">
          <g
             id="g1516">
            <path
               d="m 810,963.5 0,66 q 0,10 0,20 l 0,56 q 0,10 0,20 l 0,66"
               stroke-miterlimit="10"
               id="path1518"
               inkscape:connector-curvature="0"
               style="fill:none;stroke:#000000;stroke-width:2;stroke-miterlimit:10" />
          </g>
        </g>
      </g>
    </g>
    <g
       transform="translate(40,1150.5)"
       id="g1520">
      <g
         id="g1522">
        <g
           transform="scale(2.4,1.87)"
           id="g1524">
          <g
             transform="scale(0.81,0.72)"
             id="g1526">
            <g
               id="g1528">
              <g
                 transform="scale(0.51440329,0.74272133)"
                 id="g1530">
                <path
                   d="m 0,0 194.4,0 0,134.64 q -48.6,-33.66 -97.2,0 -48.6,33.66 -97.2,0 L 0,0 Z"
                   id="path1532"
                   inkscape:connector-curvature="0"
                   style="fill:#ffffff;stroke:none" />
                <path
                   d="m 0,0 m 0,0 194.4,0 0,134.64 q -48.6,-33.66 -97.2,0 -48.6,33.66 -97.2,0 L 0,0 Z"
                   stroke-miterlimit="10"
                   id="path1534"
                   inkscape:connector-curvature="0"
                   style="fill:none;stroke:#333333;stroke-width:2;stroke-miterlimit:10" />
              </g>
            </g>
            <g
               transform="translate(11.5,13.25)"
               id="g1536">
              <g
                 id="g1538">
                <g
                   transform="scale(0.51440329,0.74272133)"
                   id="g1540">
                  <path
                     d="m 0,0 194.4,0 0,134.64 q -48.6,-33.66 -97.2,0 -48.6,33.66 -97.2,0 L 0,0 Z"
                     id="path1542"
                     inkscape:connector-curvature="0"
                     style="fill:#ffffff;stroke:none" />
                  <path
                     d="m 0,0 m 0,0 194.4,0 0,134.64 q -48.6,-33.66 -97.2,0 -48.6,33.66 -97.2,0 L 0,0 Z"
                     stroke-miterlimit="10"
                     id="path1544"
                     inkscape:connector-curvature="0"
                     style="fill:none;stroke:#333333;stroke-width:2;stroke-miterlimit:10" />
                </g>
              </g>
            </g>
            <g
               transform="translate(23,26.5)"
               id="g1546">
              <g
                 id="g1548">
                <g
                   transform="scale(0.51440329,0.74272133)"
                   id="g1550">
                  <path
                     d="m 0,0 194.4,0 0,134.64 q -48.6,-33.66 -97.2,0 -48.6,33.66 -97.2,0 L 0,0 Z"
                     id="path1552"
                     inkscape:connector-curvature="0"
                     style="fill:#ffffff;stroke:none" />
                  <path
                     d="m 0,0 m 0,0 194.4,0 0,134.64 q -48.6,-33.66 -97.2,0 -48.6,33.66 -97.2,0 L 0,0 Z"
                     stroke-miterlimit="10"
                     id="path1554"
                     inkscape:connector-curvature="0"
                     style="fill:none;stroke:#333333;stroke-width:2;stroke-miterlimit:10" />
                </g>
              </g>
            </g>
          </g>
        </g>
      </g>
    </g>
    <g
       transform="translate(53,1230)"
       id="g1556">
      <g
         id="g1558">
        <g
           id="g1560" />
      </g>
      <g
         id="g1562">
        <g
           id="g1564" />
      </g>
      <g
         id="g1566">
        <g
           id="g1568" />
      </g>
      <g
         id="g1570">
        <g
           id="g1572" />
        <text
           font-size="12px"
           font-style="normal"
           font-weight="normal"
           text-decoration=""
           line-height="14px"
           x="76"
           y="11"
           id="text1574"
           style="font-style:normal;font-weight:normal;font-size:12px;line-height:14px;font-family:Arial;fill:#000000;stroke:none">Final</text>
        <text
           font-size="12px"
           font-style="normal"
           font-weight="normal"
           text-decoration=""
           line-height="14px"
           x="106"
           y="11"
           id="text1576"
           style="font-style:normal;font-weight:normal;font-size:12px;line-height:14px;font-family:Arial;fill:#000000;stroke:none">output</text>
      </g>
      <g
         id="g1578">
        <g
           id="g1580" />
      </g>
      <g
         id="g1582">
        <g
           id="g1584" />
      </g>
      <g
         id="g1586">
        <g
           id="g1588" />
        <text
           font-size="12px"
           font-style="normal"
           font-weight="normal"
           text-decoration=""
           line-height="14px"
           x="87"
           y="25"
           id="text1590"
           style="font-style:normal;font-weight:normal;font-size:12px;line-height:14px;font-family:Arial;fill:#000000;stroke:none">170</text>
        <text
           font-size="12px"
           font-style="normal"
           font-weight="normal"
           text-decoration=""
           line-height="14px"
           x="111"
           y="25"
           id="text1592"
           style="font-style:normal;font-weight:normal;font-size:12px;line-height:14px;font-family:Arial;fill:#000000;stroke:none">GB</text>
      </g>
      <g
         id="g1594">
        <g
           id="g1596" />
      </g>
    </g>
    <g
       transform="translate(490,1200.5)"
       id="g1598">
      <g
         id="g1600">
        <g
           transform="scale(1,0.75)"
           id="g1602">
          <g
             id="g1604">
            <path
               d="m 0,0 100,0 q 0,0 0,0 l 0,100 q 0,0 0,0 L 0,100 q 0,0 0,0 L 0,0 q 0,0 0,0 z"
               id="path1606"
               inkscape:connector-curvature="0"
               style="fill:#ffffff;stroke:none" />
            <g
               transform="scale(1,1.3333333)"
               id="g1608">
              <path
                 d="m 0,0 100,0 q 0,0 0,0 l 0,75 q 0,0 0,0 L 0,75 q 0,0 0,0 L 0,0 q 0,0 0,0 z"
                 id="path1610"
                 inkscape:connector-curvature="0"
                 style="fill:none;stroke:none" />
              <path
                 d="m 0,0 m 0,0 100,0 q 0,0 0,0 l 0,75 q 0,0 0,0 L 0,75 q 0,0 0,0 L 0,0 q 0,0 0,0 z"
                 stroke-miterlimit="10"
                 id="path1612"
                 inkscape:connector-curvature="0"
                 style="fill:none;stroke:#333333;stroke-width:2;stroke-miterlimit:10" />
            </g>
          </g>
        </g>
      </g>
    </g>
    <g
       transform="translate(500,1231)"
       id="g1614">
      <g
         id="g1616">
        <g
           id="g1618" />
      </g>
      <g
         id="g1620">
        <g
           id="g1622" />
      </g>
      <g
         id="g1624">
        <g
           id="g1626" />
        <text
           font-size="12px"
           font-style="normal"
           font-weight="normal"
           text-decoration=""
           line-height="14px"
           x="26"
           y="11"
           id="text1628"
           style="font-style:normal;font-weight:normal;font-size:12px;line-height:14px;font-family:Arial;fill:#000000;stroke:none">Q</text>
      </g>
      <g
         id="g1630">
        <g
           id="g1632" />
        <text
           font-size="12px"
           font-style="normal"
           font-weight="normal"
           text-decoration=""
           line-height="14px"
           x="35"
           y="11"
           id="text1634"
           style="font-style:normal;font-weight:normal;font-size:12px;line-height:14px;font-family:Arial;fill:#000000;stroke:none">DM</text>
      </g>
      <g
         id="g1636">
        <g
           id="g1638" />
      </g>
    </g>
    <g
       transform="translate(585.5,1233.5)"
       id="g1640">
      <g
         id="g1642">
        <g
           transform="translate(-585.5,-1233.5)"
           id="g1644">
          <g
             id="g1646">
            <path
               d="m 760,1238 -46.66667,0 q -10,0 -20,0 l -36.66666,0 q -10,0 -20,0 L 590,1238"
               stroke-miterlimit="10"
               id="path1648"
               inkscape:connector-curvature="0"
               style="fill:none;stroke:#000000;stroke-width:2;stroke-miterlimit:10" />
          </g>
        </g>
      </g>
    </g>
    <g
       transform="translate(485.5,1128)"
       id="g1650">
      <g
         id="g1652">
        <g
           transform="translate(-485.5,-1128)"
           id="g1654">
          <g
             id="g1656">
            <path
               d="m 490,1132.5 0,24 q 0,10 10,10 l 9.28932,0 q 10,0 10,10 l 0,24"
               stroke-miterlimit="10"
               id="path1658"
               inkscape:connector-curvature="0"
               style="fill:none;stroke:#000000;stroke-width:2;stroke-miterlimit:10" />
          </g>
        </g>
      </g>
    </g>
    <g
       transform="translate(275.4143,1233.5)"
       id="g1660">
      <g
         id="g1662">
        <g
           transform="translate(-275.4143,-1233.5)"
           id="g1664">
          <g
             id="g1666">
            <path
               d="m 490,1238 -60.02857,0 q -10,0 -20,0 l -50.02856,0 q -10,0 -20,0 l -60.02857,0"
               stroke-miterlimit="10"
               id="path1668"
               inkscape:connector-curvature="0"
               style="fill:none;stroke:#000000;stroke-width:2;stroke-miterlimit:10" />
          </g>
        </g>
      </g>
    </g>
    <g
       transform="translate(40,770)"
       id="g1670">
      <g
         id="g1672">
        <g
           id="g1674">
          <g
             transform="scale(0.81,0.72)"
             id="g1676">
            <g
               id="g1678">
              <g
                 transform="scale(1.2345679,1.3888889)"
                 id="g1680">
                <path
                   d="m 0,0 81,0 0,72 Q 60.75,54 40.5,72 20.25,90 0,72 L 0,0 Z"
                   id="path1682"
                   inkscape:connector-curvature="0"
                   style="fill:#ffffff;stroke:none" />
                <path
                   d="m 0,0 m 0,0 81,0 0,72 Q 60.75,54 40.5,72 20.25,90 0,72 L 0,0 Z"
                   stroke-miterlimit="10"
                   id="path1684"
                   inkscape:connector-curvature="0"
                   style="fill:none;stroke:#333333;stroke-width:2;stroke-miterlimit:10" />
              </g>
            </g>
            <g
               transform="translate(11.5,13.25)"
               id="g1686">
              <g
                 id="g1688">
                <g
                   transform="scale(1.2345679,1.3888889)"
                   id="g1690">
                  <path
                     d="m 0,0 81,0 0,72 Q 60.75,54 40.5,72 20.25,90 0,72 L 0,0 Z"
                     id="path1692"
                     inkscape:connector-curvature="0"
                     style="fill:#ffffff;stroke:none" />
                  <path
                     d="m 0,0 m 0,0 81,0 0,72 Q 60.75,54 40.5,72 20.25,90 0,72 L 0,0 Z"
                     stroke-miterlimit="10"
                     id="path1694"
                     inkscape:connector-curvature="0"
                     style="fill:none;stroke:#333333;stroke-width:2;stroke-miterlimit:10" />
                </g>
              </g>
            </g>
            <g
               transform="translate(23,26.5)"
               id="g1696">
              <g
                 id="g1698">
                <g
                   transform="scale(1.2345679,1.3888889)"
                   id="g1700">
                  <path
                     d="m 0,0 81,0 0,72 Q 60.75,54 40.5,72 20.25,90 0,72 L 0,0 Z"
                     id="path1702"
                     inkscape:connector-curvature="0"
                     style="fill:#ffffff;stroke:none" />
                  <path
                     d="m 0,0 m 0,0 81,0 0,72 Q 60.75,54 40.5,72 20.25,90 0,72 L 0,0 Z"
                     stroke-miterlimit="10"
                     id="path1704"
                     inkscape:connector-curvature="0"
                     style="fill:none;stroke:#333333;stroke-width:2;stroke-miterlimit:10" />
                </g>
              </g>
            </g>
          </g>
        </g>
      </g>
    </g>
    <g
       transform="translate(50,799)"
       id="g1706">
      <g
         id="g1708">
        <g
           id="g1710" />
      </g>
      <g
         id="g1712">
        <g
           id="g1714" />
      </g>
      <g
         id="g1716">
        <g
           id="g1718" />
      </g>
      <g
         id="g1720">
        <g
           id="g1722" />
        <text
           font-size="12px"
           font-style="normal"
           font-weight="normal"
           text-decoration=""
           line-height="14px"
           x="6"
           y="11"
           id="text1724"
           style="font-style:normal;font-weight:normal;font-size:12px;line-height:14px;font-family:Arial;fill:#000000;stroke:none">ANUSPLINE</text>
      </g>
      <g
         id="g1726">
        <g
           id="g1728" />
      </g>
      <g
         id="g1730">
        <g
           id="g1732" />
      </g>
      <g
         id="g1734">
        <g
           id="g1736" />
      </g>
      <g
         id="g1738">
        <g
           id="g1740" />
        <text
           font-size="12px"
           font-style="normal"
           font-weight="normal"
           text-decoration=""
           line-height="14px"
           x="30"
           y="25"
           id="text1742"
           style="font-style:normal;font-weight:normal;font-size:12px;line-height:14px;font-family:Arial;fill:#000000;stroke:none">Obs</text>
      </g>
      <g
         id="g1744">
        <g
           id="g1746" />
      </g>
      <g
         id="g1748">
        <g
           id="g1750" />
      </g>
      <g
         id="g1752">
        <g
           id="g1754" />
        <text
           font-size="12px"
           font-style="normal"
           font-weight="normal"
           text-decoration=""
           line-height="14px"
           x="24"
           y="39"
           id="text1756"
           style="font-style:normal;font-weight:normal;font-size:12px;line-height:14px;font-family:Arial;fill:#000000;stroke:none">90</text>
        <text
           font-size="12px"
           font-style="normal"
           font-weight="normal"
           text-decoration=""
           line-height="14px"
           x="41"
           y="39"
           id="text1758"
           style="font-style:normal;font-weight:normal;font-size:12px;line-height:14px;font-family:Arial;fill:#000000;stroke:none">GB</text>
      </g>
    </g>
    <g
       transform="translate(272,757)"
       id="g1760">
      <g
         id="g1762">
        <g
           id="g1764" />
      </g>
      <g
         id="g1766">
        <g
           id="g1768" />
      </g>
      <g
         id="g1770">
        <g
           id="g1772" />
      </g>
      <g
         id="g1774">
        <g
           id="g1776" />
      </g>
      <g
         id="g1786">
        <g
           id="g1788" />
      </g>
      <g
         id="g1790">
        <g
           id="g1792" />
      </g>
    </g>
  </g>
</svg>
